<?xml version="1.0" encoding="utf-8"?>
<!-- Generator: Adobe Illustrator 16.0.0, SVG Export Plug-In . SVG Version: 6.00 Build 0)  -->
<!DOCTYPE svg PUBLIC "-//W3C//DTD SVG 1.1//EN" "http://www.w3.org/Graphics/SVG/1.1/DTD/svg11.dtd">
<svg version="1.1" id="Layer_1" xmlns="http://www.w3.org/2000/svg" xmlns:xlink="http://www.w3.org/1999/xlink" x="0px" y="0px"
	 width="1104.384px" height="283.46px" viewBox="0 0 1104.384 283.46" enable-background="new 0 0 1104.384 283.46"
	 xml:space="preserve">
<path fill="#00C98C" d="M82.312,105.055c18.086,0,37.9,7.539,52.544,20.245c1.943,1.506,2.153,4.091,0.437,5.812L118.27,149.21
	c-1.715,1.51-4.09,1.51-5.811,0.205c-8.185-7.534-17.661-10.328-28.209-10.328c-23.478,0-42.428,19.802-42.428,43.495
	c0,23.482,19.166,42.865,42.638,42.865c6.249,0,12.708-0.869,19.177-3.449v-12.491H90.065c-2.374,0-4.095-1.726-4.095-3.88v-21.318
	c0-2.369,1.722-4.09,4.095-4.09h43.286c2.153,0,3.88,1.932,3.88,4.09l0.215,57.939c0,1.074-0.863,2.791-1.726,3.443
	c0,0-22.188,13.986-53.408,13.986c-42.865,0-77.317-34.016-77.317-77.096C4.996,139.507,39.448,105.055,82.312,105.055"/>
<path fill="#00C98C" d="M150.752,111.083c0-2.159,1.727-4.09,4.09-4.09h89.16c2.364,0,4.102,1.932,4.102,4.09v23.477
	c0,2.152-1.737,4.084-4.102,4.084h-59.656v26.715h49.107c2.153,0,4.09,1.937,4.09,4.089v23.478c0,2.364-1.937,4.091-4.09,4.091
	h-49.107v29.072h59.656c2.364,0,4.102,1.937,4.102,4.095v23.473c0,2.152-1.737,4.089-4.102,4.089h-89.16
	c-2.363,0-4.09-1.937-4.09-4.089V111.083z"/>
<path fill="#00C98C" d="M296.337,138.644h-30.794c-2.364,0-4.09-1.932-4.09-4.084v-23.477c0-2.159,1.726-4.09,4.09-4.09h95.625
	c2.369,0,4.09,1.932,4.09,4.09v23.477c0,2.152-1.722,4.084-4.09,4.084h-30.805V253.65c0,2.153-1.937,4.095-4.096,4.095h-25.834
	c-2.153,0-4.096-1.941-4.096-4.095V138.644z"/>
<path fill="#00C98C" d="M502.797,187.4l-16.371-35.532h-0.21L470.061,187.4H502.797z M414.284,233.491l67.414-144.942
	c0.638-1.284,2.148-2.363,3.648-2.363h2.158c1.511,0,3.011,1.079,3.669,2.363l67.398,144.942c1.302,2.811-0.426,5.602-3.658,5.602
	h-23.897c-3.885,0-5.605-1.295-7.543-5.391l-7.749-16.997h-58.577l-7.764,17.219c-1.074,2.589-3.438,5.169-7.743,5.169h-23.688
	C414.715,239.093,412.989,236.302,414.284,233.491"/>
<path fill="#00C98C" d="M647.707,125.187c21.54,0,37.468,6.675,52.129,20.029c1.937,1.722,1.937,4.316,0.209,6.033l-16.791,17.443
	c-1.517,1.506-3.886,1.506-5.396,0c-7.963-7.11-18.519-10.984-29.077-10.984c-24.335,0-42.206,20.24-42.206,44.369
	c0,23.898,18.093,43.717,42.422,43.717c10.128,0,21.113-3.663,28.861-10.339c1.511-1.295,4.317-1.295,5.602,0.216l16.803,17.872
	c1.511,1.51,1.3,4.305-0.217,5.821c-14.643,14.202-33.161,20.887-52.338,20.887c-43.069,0-77.749-34.235-77.749-77.315
	C569.958,159.86,604.638,125.187,647.707,125.187"/>
<path fill="#00C98C" d="M730.645,117.838h-30.788c-2.368,0-4.095-1.931-4.095-4.085V90.276c0-2.158,1.727-4.09,4.095-4.09h95.619
	c2.363,0,4.097,1.932,4.097,4.09v23.477c0,2.154-1.733,4.085-4.097,4.085h-30.799v115.006c0,2.164-1.933,4.096-4.091,4.096h-25.84
	c-2.147,0-4.102-1.932-4.102-4.096V117.838z"/>
<path fill="#00C98C" d="M812.483,131.436c0-2.154,1.948-4.101,4.101-4.101h25.847c2.147,0,4.085,1.947,4.085,4.101v142.567
	c0,2.159-1.938,4.096-4.085,4.096h-25.847c-2.152,0-4.101-1.937-4.101-4.096V131.436z"/>
<path fill="#00C98C" d="M855.564,91.787c-1.295-2.806,0.431-5.606,3.657-5.606h28.646c1.717,0,3.233,1.3,3.659,2.38l35.536,78.601
	h1.29l35.542-78.601c0.426-1.08,1.926-2.38,3.658-2.38H996.2c3.226,0,4.947,2.8,3.658,5.606l-67.62,144.937
	c-0.652,1.289-1.943,2.369-3.664,2.369h-2.157c-1.722,0-3.013-1.08-3.665-2.369L855.564,91.787z"/>
<path fill="#00C98C" d="M1000.284,131.436c0-2.154,1.728-4.101,4.096-4.101h89.161c2.374,0,4.096,1.947,4.096,4.101v23.471
	c0,2.154-1.722,4.091-4.096,4.091h-59.65v26.709h49.102c2.147,0,4.095,1.938,4.095,4.096v23.477c0,2.363-1.947,4.085-4.095,4.085
	h-49.102v29.072h59.65c2.374,0,4.096,1.938,4.096,4.096v23.472c0,2.159-1.722,4.096-4.096,4.096h-89.161
	c-2.368,0-4.096-1.937-4.096-4.096V131.436z"/>
<path fill="#384B54" d="M782.381,6.069c0-0.723,0.566-1.371,1.359-1.371h4.737c0.719,0,1.365,0.647,1.365,1.371v42.227h19.458
	c0.792,0,1.364,0.637,1.364,1.355v3.949c0,0.718-0.572,1.365-1.364,1.365H783.74c-0.793,0-1.359-0.647-1.359-1.365V6.069z"/>
<path fill="#384B54" d="M838.745,48.502c10.268,0,18.664-8.332,18.664-18.594c0-10.198-8.396-18.739-18.664-18.739
	c-10.203,0-18.604,8.542-18.604,18.739C820.141,40.17,828.542,48.502,838.745,48.502 M838.745,3.986
	c14.363,0,25.856,11.558,25.856,25.921c0,14.353-11.493,25.776-25.856,25.776s-25.781-11.423-25.781-25.776
	C812.964,15.544,824.382,3.986,838.745,3.986"/>
<path fill="#384B54" d="M872.351,5.281c0-0.718,0.646-1.292,1.359-1.292h1.803l31.166,36.041h0.069V6.069
	c0-0.723,0.578-1.371,1.359-1.371h4.599c0.723,0,1.364,0.647,1.364,1.371v48.325c0,0.723-0.642,1.295-1.364,1.295h-1.874
	l-31.159-37.058h-0.065v34.976c0,0.712-0.572,1.359-1.37,1.359h-4.527c-0.713,0-1.359-0.647-1.359-1.359V5.281z"/>
<path fill="#384B54" d="M940.855,48.145c10.564,0,18.248-7.758,18.248-18.377c0-10.56-7.684-18.244-18.248-18.244h-9.48v36.621
	H940.855z M924.059,6.069c0-0.723,0.566-1.371,1.284-1.371h16.511c13.872,0,25.215,11.277,25.215,25.069
	c0,13.927-11.343,25.198-25.215,25.198h-16.511c-0.718,0-1.284-0.647-1.284-1.365V6.069z"/>
<path fill="#384B54" d="M998.45,48.502c10.263,0,18.669-8.332,18.669-18.594c0-10.198-8.406-18.739-18.669-18.739
	c-10.192,0-18.61,8.542-18.61,18.739C979.84,40.17,988.258,48.502,998.45,48.502 M998.45,3.986
	c14.364,0,25.852,11.558,25.852,25.921c0,14.353-11.487,25.776-25.852,25.776c-14.369,0-25.775-11.423-25.775-25.776
	C972.675,15.544,984.081,3.986,998.45,3.986"/>
<path fill="#384B54" d="M1032.05,5.281c0-0.718,0.652-1.292,1.371-1.292h1.797l31.159,36.041h0.077V6.069
	c0-0.723,0.571-1.371,1.364-1.371h4.593c0.717,0,1.358,0.647,1.358,1.371v48.325c0,0.723-0.642,1.295-1.358,1.295h-1.868
	l-31.166-37.058h-0.064v34.976c0,0.712-0.577,1.359-1.37,1.359h-4.521c-0.719,0-1.371-0.647-1.371-1.359V5.281z"/>
</svg>
